<svg id="Capa_1" data-name="Capa 1" xmlns="http://www.w3.org/2000/svg" viewBox="0 0 512 512">
  <defs>
    <style>
      .cls-1 {
        fill: #e8e8e8;
      }
    </style>
  </defs>
  <path class="cls-1" d="M256,0C114.8,0,0,114.8,0,256S114.8,512,256,512,512,397.2,512,256,397.2,0,256,0Zm0,74.7A122.848,122.848,0,0,1,378.7,197.4C378.7,265.1,323.6,320,256,320A122.848,122.848,0,0,1,133.3,197.3C133.3,129.6,188.4,74.7,256,74.7Zm0,394.6c-69.7,0-131.5-33.8-170.5-85.6,42.7-20.5,103.6-42.4,170.5-42.4s127.8,21.9,170.5,42.4C387.5,435.6,325.7,469.3,256,469.3Z"/>
</svg>
