<svg id="Capa_1" data-name="Capa 1" xmlns="http://www.w3.org/2000/svg" viewBox="0 0 415.99799 415.99799">
  <defs>
    <style>
      .cls-1 {
        fill: #f2f2f2;
      }
    </style>
  </defs>
  <circle class="cls-1" cx="208.239" cy="48" r="12"/>
  <path class="cls-1" d="M367.998,95.999a31.99928,31.99928,0,0,0-31.999-32H291.575a47.87,47.87,0,0,0-22.284-14.136,22.02174,22.02174,0,0,1-15.156-15.155,48.0171,48.0171,0,0,0-92.271-.002,22.0579,22.0579,0,0,1-15.182,15.165A47.86834,47.86834,0,0,0,124.42,63.999H79.999a31.9995,31.9995,0,0,0-32,32V383.998a31.9995,31.9995,0,0,0,32,32h256a31.9995,31.9995,0,0,0,32-32C367.999,293.119,367.998,206.096,367.998,95.999ZM128,95.741a32.17553,32.17553,0,0,1,23.113-30.496A37.9637,37.9637,0,0,0,177.24,39.129a32.016,32.016,0,0,1,61.516.001,37.92455,37.92455,0,0,0,26.111,26.11,32.13765,32.13765,0,0,1,23.13,30.758v16H128ZM335.999,399.998h-256a16.018,16.018,0,0,1-16-16V95.999a16.018,16.018,0,0,1,16-16h34.742a47.84946,47.84946,0,0,0-2.74,15.617v32.383H303.999v-32a47.85885,47.85885,0,0,0-2.764-16h34.764a16.01783,16.01783,0,0,1,15.999,16c0,45.743-.001,260.254.002,287.999A16.01953,16.01953,0,0,1,335.999,399.998Z"/>
  <rect class="cls-1" x="159.99899" y="176" width="144" height="16"/>
  <rect class="cls-1" x="159.99899" y="224" width="144" height="16"/>
  <rect class="cls-1" x="159.99899" y="272" width="144" height="16"/>
  <rect class="cls-1" x="159.99899" y="320" width="144" height="16"/>
  <circle class="cls-1" cx="119.999" cy="184" r="8"/>
  <circle class="cls-1" cx="119.999" cy="232" r="8"/>
  <circle class="cls-1" cx="119.999" cy="280" r="8"/>
  <circle class="cls-1" cx="119.999" cy="328" r="8"/>
</svg>
