<svg id="Layer_1" data-name="Layer 1" xmlns="http://www.w3.org/2000/svg" viewBox="0 0 512.00144 450.00391">
  <defs>
    <style>
      .cls-1 {
        fill: #e74c3c;
      }
    </style>
  </defs>
  <path class="cls-1" d="M166,331.004H437.00391A14.95283,14.95283,0,0,0,451.418,320.12123l60.00391-210.00391a14.97981,14.97981,0,0,0-14.418-19.11719H131.37109l-10.72265-48.25A14.99941,14.99941,0,0,0,106,31.00013H15a15,15,0,0,0,0,30H93.96094l54.168,243.75A44.97267,44.97267,0,0,0,166,391.004H437.00391a15,15,0,0,0,0-30H166a15,15,0,0,1,0-30Z" transform="translate(0 -31.00013)"/>
  <path class="cls-1" d="M151,436.004a45.002,45.002,0,1,0,45.00391-45A45.05,45.05,0,0,0,151,436.004Z" transform="translate(0 -31.00013)"/>
  <path class="cls-1" d="M362.00391,436.004a45,45,0,1,0,45-45A45.0492,45.0492,0,0,0,362.00391,436.004Z" transform="translate(0 -31.00013)"/>
</svg>
