<svg id="Capa_1" data-name="Capa 1" xmlns="http://www.w3.org/2000/svg" viewBox="0 0 512 512">
  <defs>
    <style>
      .cls-1 {
        fill: #f2f2f2;
      }
    </style>
  </defs>
  <path class="cls-1" d="M458.667,85.333H53.333A53.40765,53.40765,0,0,0,0,138.667V373.334a53.40744,53.40744,0,0,0,53.333,53.333H458.666a53.40744,53.40744,0,0,0,53.333-53.333V138.667A53.40619,53.40619,0,0,0,458.667,85.333Zm32,288a32.03863,32.03863,0,0,1-32,32H53.333a32.03863,32.03863,0,0,1-32-32V138.667a32.03863,32.03863,0,0,1,32-32H458.666a32.03863,32.03863,0,0,1,32,32V373.333Z"/>
  <path class="cls-1" d="M501.333,149.333H10.667A10.67114,10.67114,0,0,0,0,160v64a10.67112,10.67112,0,0,0,10.667,10.667H501.334A10.67113,10.67113,0,0,0,512.001,224V160A10.67259,10.67259,0,0,0,501.333,149.333Zm-10.666,64H21.333V170.666H490.666v42.667Z"/>
  <path class="cls-1" d="M202.667,298.667h-128a10.66651,10.66651,0,1,0,0,21.333h128a10.66651,10.66651,0,1,0,0-21.333Z"/>
  <path class="cls-1" d="M202.667,341.333h-128a10.667,10.667,0,1,0,0,21.334h128a10.667,10.667,0,0,0,0-21.334Z"/>
  <path class="cls-1" d="M416,277.333H394.667a32.03863,32.03863,0,0,0-32,32v21.333a32.03863,32.03863,0,0,0,32,32H416a32.03863,32.03863,0,0,0,32-32V309.333A32.03927,32.03927,0,0,0,416,277.333Zm10.667,53.334A10.67111,10.67111,0,0,1,416,341.334H394.667A10.67111,10.67111,0,0,1,384,330.667V309.334a10.67111,10.67111,0,0,1,10.667-10.667H416a10.67111,10.67111,0,0,1,10.667,10.667Z"/>
</svg>
