<svg id="Layer_1" data-name="Layer 1" xmlns="http://www.w3.org/2000/svg" viewBox="0 0 512 512">
  <defs>
    <style>
      .cls-1 {
        fill: #f2f2f2;
      }
    </style>
  </defs>
  <path class="cls-1" d="M164.96094,331.004h.02344c.01953,0,.03906-.0039.05859-.0039H437a15.00267,15.00267,0,0,0,14.42188-10.87891l60-210A14.99884,14.99884,0,0,0,497,91.00011H130.36719L119.64453,42.7462A15.00293,15.00293,0,0,0,105,31.00011H15a15,15,0,0,0,0,30H92.96875c1.89844,8.55078,51.3125,230.918,54.15625,243.71093A44.99491,44.99491,0,0,0,165,391.00011H437a15,15,0,0,0,0-30H165a14.99807,14.99807,0,0,1-.03906-29.9961Zm312.15234-210.0039-51.42969,180H177.03125l-40-180Z"/>
  <path class="cls-1" d="M150,436.00011a45,45,0,1,0,45-45A45.05172,45.05172,0,0,0,150,436.00011Zm45-15a15,15,0,1,1-15,15A15.01891,15.01891,0,0,1,195,421.00011Z"/>
  <path class="cls-1" d="M362,436.00011a45,45,0,1,0,45-45A45.05172,45.05172,0,0,0,362,436.00011Zm45-15a15,15,0,1,1-15,15A15.01891,15.01891,0,0,1,407,421.00011Z"/>
</svg>
